<svg viewBox="0 0 32 33" xmlns="http://www.w3.org/2000/svg" xml:space="preserve" style="fill-rule:evenodd;clip-rule:evenodd;stroke-linejoin:round;stroke-miterlimit:2"><path d="M16 10.16 10.16 16 16 21.84l1.68-1.68-2.96-2.96H22v-2.4h-7.28l2.96-2.96L16 10.16ZM16 0c2.187 0 4.253.42 6.2 1.26a16.227 16.227 0 0 1 5.1 3.44 16.227 16.227 0 0 1 3.44 5.1C31.58 11.747 32 13.813 32 16c0 2.213-.42 4.293-1.26 6.24-.84 1.947-1.987 3.64-3.44 5.08a16.394 16.394 0 0 1-5.1 3.42C20.253 31.58 18.187 32 16 32c-2.213 0-4.293-.42-6.24-1.26-1.947-.84-3.64-1.98-5.08-3.42s-2.58-3.133-3.42-5.08C.42 20.293 0 18.213 0 16c0-2.187.42-4.253 1.26-6.2a16.394 16.394 0 0 1 3.42-5.1c1.44-1.453 3.133-2.6 5.08-3.44C11.707.42 13.787 0 16 0Zm0 2.4c-3.787 0-7 1.327-9.64 3.98C3.72 9.033 2.4 12.24 2.4 16c0 3.787 1.32 7 3.96 9.64C9 28.28 12.213 29.6 16 29.6c3.76 0 6.967-1.32 9.62-3.96C28.273 23 29.6 19.787 29.6 16c0-3.76-1.327-6.967-3.98-9.62C22.967 3.727 19.76 2.4 16 2.4Z" style="fill:#fff;fill-rule:nonzero"/><path d="M16 10.16 10.16 16 16 21.84l1.68-1.68-2.96-2.96H22v-2.4h-7.28l2.96-2.96L16 10.16ZM16 0c2.187 0 4.253.42 6.2 1.26a16.227 16.227 0 0 1 5.1 3.44 16.227 16.227 0 0 1 3.44 5.1C31.58 11.747 32 13.813 32 16c0 2.213-.42 4.293-1.26 6.24-.84 1.947-1.987 3.64-3.44 5.08a16.394 16.394 0 0 1-5.1 3.42C20.253 31.58 18.187 32 16 32c-2.213 0-4.293-.42-6.24-1.26-1.947-.84-3.64-1.98-5.08-3.42s-2.58-3.133-3.42-5.08C.42 20.293 0 18.213 0 16c0-2.187.42-4.253 1.26-6.2a16.394 16.394 0 0 1 3.42-5.1c1.44-1.453 3.133-2.6 5.08-3.44C11.707.42 13.787 0 16 0Zm0 2.4c-3.787 0-7 1.327-9.64 3.98C3.72 9.033 2.4 12.24 2.4 16c0 3.787 1.32 7 3.96 9.64C9 28.28 12.213 29.6 16 29.6c3.76 0 6.967-1.32 9.62-3.96C28.273 23 29.6 19.787 29.6 16c0-3.76-1.327-6.967-3.98-9.62C22.967 3.727 19.76 2.4 16 2.4Z" style="fill:#fff;fill-rule:nonzero"/></svg>