<svg viewBox="0 0 32 32" xmlns="http://www.w3.org/2000/svg" xml:space="preserve" style="fill-rule:evenodd;clip-rule:evenodd;stroke-linejoin:round;stroke-miterlimit:2"><path d="m232 21.84 5.84-5.84-5.84-5.84-1.68 1.68 2.96 2.96H226v2.4h7.28l-2.96 2.96 1.68 1.68ZM232 32c-2.187 0-4.253-.42-6.2-1.26a16.227 16.227 0 0 1-5.1-3.44 16.227 16.227 0 0 1-3.44-5.1c-.84-1.947-1.26-4.013-1.26-6.2 0-2.213.42-4.293 1.26-6.24.84-1.947 1.987-3.64 3.44-5.08a16.394 16.394 0 0 1 5.1-3.42C227.747.42 229.813 0 232 0c2.213 0 4.293.42 6.24 1.26 1.947.84 3.64 1.98 5.08 3.42s2.58 3.133 3.42 5.08c.84 1.947 1.26 4.027 1.26 6.24 0 2.187-.42 4.253-1.26 6.2a16.394 16.394 0 0 1-3.42 5.1c-1.44 1.453-3.133 2.6-5.08 3.44-1.947.84-4.027 1.26-6.24 1.26Zm0-2.4c3.787 0 7-1.327 9.64-3.98 2.64-2.653 3.96-5.86 3.96-9.62 0-3.787-1.32-7-3.96-9.64C239 3.72 235.787 2.4 232 2.4c-3.76 0-6.967 1.32-9.62 3.96-2.653 2.64-3.98 5.853-3.98 9.64 0 3.76 1.327 6.967 3.98 9.62 2.653 2.653 5.86 3.98 9.62 3.98Z" style="fill:#fff;fill-rule:nonzero" transform="translate(-216)"/></svg>